<svg width="10" height="6" viewBox="0 0 10 6" fill="none" xmlns="http://www.w3.org/2000/svg">
<path d="M0.0999194 5.38149L0.600886 5.89687C0.66764 5.9657 0.744536 6 0.83147 6C0.918194 6 0.995055 5.9657 1.06181 5.89687L4.99995 1.84537L8.93791 5.89677C9.0047 5.96559 9.08156 5.99989 9.16839 5.99989C9.25525 5.99989 9.33211 5.96559 9.39887 5.89677L9.89976 5.38135C9.96666 5.31267 10 5.23359 10 5.14422C10 5.05493 9.96655 4.97585 9.89976 4.90717L5.23043 0.103054C5.16367 0.0343399 5.08678 4.18649e-07 4.99995 4.09193e-07C4.91312 3.99738e-07 4.83636 0.0343398 4.76964 0.103054L0.0999194 4.90717C0.033166 4.97588 6.63269e-08 5.05496 6.00622e-08 5.14422C5.37899e-08 5.23359 0.033166 5.31267 0.0999194 5.38149Z" fill="#002CFB"/>
</svg>
